<mxfile host="app.diagrams.net" modified="2024-06-07T19:11:09.471Z" agent="Mozilla/5.0 (Windows NT 10.0; Win64; x64) AppleWebKit/537.36 (KHTML, like Gecko) Chrome/125.0.0.0 Safari/537.36" etag="ZrFSlbEth43ccZv8wnmy" version="24.5.2" type="device">
  <diagram id="R2lEEEUBdFMjLlhIrx00" name="Page-1">
    <mxGraphModel dx="574" dy="346" grid="1" gridSize="10" guides="1" tooltips="1" connect="1" arrows="1" fold="1" page="1" pageScale="1" pageWidth="850" pageHeight="1100" math="0" shadow="0" extFonts="Permanent Marker^https://fonts.googleapis.com/css?family=Permanent+Marker">
      <root>
        <mxCell id="0" />
        <mxCell id="1" parent="0" />
        <mxCell id="x841J3Bm1jZhFWWxQSsH-1" value="Event" style="whiteSpace=wrap;html=1;align=center;fillColor=#e1d5e7;strokeColor=#9673a6;" parent="1" vertex="1">
          <mxGeometry x="153" y="303" width="80" height="30" as="geometry" />
        </mxCell>
        <mxCell id="x841J3Bm1jZhFWWxQSsH-2" value="Attendee" style="whiteSpace=wrap;html=1;align=center;fillColor=#e1d5e7;strokeColor=#9673a6;" parent="1" vertex="1">
          <mxGeometry x="478" y="303" width="80" height="30" as="geometry" />
        </mxCell>
        <mxCell id="x841J3Bm1jZhFWWxQSsH-3" value="Speaker" style="whiteSpace=wrap;html=1;align=center;fillColor=#e1d5e7;strokeColor=#9673a6;" parent="1" vertex="1">
          <mxGeometry x="148" y="548" width="80" height="30" as="geometry" />
        </mxCell>
        <mxCell id="x841J3Bm1jZhFWWxQSsH-4" value="Sponsor" style="whiteSpace=wrap;html=1;align=center;fillColor=#e1d5e7;strokeColor=#9673a6;" parent="1" vertex="1">
          <mxGeometry x="575" y="475" width="80" height="30" as="geometry" />
        </mxCell>
        <mxCell id="x841J3Bm1jZhFWWxQSsH-6" value="Registration" style="whiteSpace=wrap;html=1;align=center;fillColor=#e1d5e7;strokeColor=#9673a6;" parent="1" vertex="1">
          <mxGeometry x="374" y="658" width="80" height="30" as="geometry" />
        </mxCell>
        <mxCell id="x841J3Bm1jZhFWWxQSsH-8" value="&lt;font style=&quot;font-size: 9px;&quot;&gt;&lt;u&gt;Event_ID&lt;/u&gt;&lt;/font&gt;" style="ellipse;whiteSpace=wrap;html=1;align=center;spacing=-2;fillColor=#f8cecc;strokeColor=#b85450;" parent="1" vertex="1">
          <mxGeometry x="20" y="273.5" width="50" height="30" as="geometry" />
        </mxCell>
        <mxCell id="x841J3Bm1jZhFWWxQSsH-9" value="&lt;font size=&quot;1&quot;&gt;Name&lt;/font&gt;" style="ellipse;whiteSpace=wrap;html=1;align=center;spacing=-2;fillColor=#dae8fc;strokeColor=#6c8ebf;" parent="1" vertex="1">
          <mxGeometry x="20" y="223" width="50" height="30" as="geometry" />
        </mxCell>
        <mxCell id="x841J3Bm1jZhFWWxQSsH-10" value="&lt;font style=&quot;font-size: 9px;&quot;&gt;Description&lt;/font&gt;" style="ellipse;whiteSpace=wrap;html=1;align=center;spacing=-2;fillColor=#dae8fc;strokeColor=#6c8ebf;" parent="1" vertex="1">
          <mxGeometry x="40" y="180" width="50" height="30" as="geometry" />
        </mxCell>
        <mxCell id="x841J3Bm1jZhFWWxQSsH-11" value="&lt;font style=&quot;font-size: 9px;&quot;&gt;Date&lt;/font&gt;" style="ellipse;whiteSpace=wrap;html=1;align=center;spacing=-2;fillColor=#dae8fc;strokeColor=#6c8ebf;" parent="1" vertex="1">
          <mxGeometry x="103" y="180" width="50" height="30" as="geometry" />
        </mxCell>
        <mxCell id="x841J3Bm1jZhFWWxQSsH-12" value="&lt;font style=&quot;font-size: 9px;&quot;&gt;time&lt;/font&gt;" style="ellipse;whiteSpace=wrap;html=1;align=center;spacing=-2;fillColor=#dae8fc;strokeColor=#6c8ebf;" parent="1" vertex="1">
          <mxGeometry x="268" y="273.5" width="50" height="29.5" as="geometry" />
        </mxCell>
        <mxCell id="x841J3Bm1jZhFWWxQSsH-13" value="&lt;font style=&quot;font-size: 9px;&quot;&gt;venue&lt;/font&gt;" style="ellipse;whiteSpace=wrap;html=1;align=center;spacing=-2;fillColor=#dae8fc;strokeColor=#6c8ebf;" parent="1" vertex="1">
          <mxGeometry x="248" y="333" width="50" height="30" as="geometry" />
        </mxCell>
        <mxCell id="x841J3Bm1jZhFWWxQSsH-14" value="&lt;font style=&quot;font-size: 8px;&quot;&gt;Maximum Capacity&lt;/font&gt;" style="ellipse;whiteSpace=wrap;html=1;align=center;spacing=-2;fillColor=#dae8fc;strokeColor=#6c8ebf;" parent="1" vertex="1">
          <mxGeometry x="120" y="130" width="60" height="30" as="geometry" />
        </mxCell>
        <mxCell id="LLo8mtpyxURMcRUDiqvW-5" value="" style="endArrow=none;html=1;rounded=0;entryX=0.607;entryY=1.071;entryDx=0;entryDy=0;entryPerimeter=0;exitX=0.3;exitY=-0.024;exitDx=0;exitDy=0;exitPerimeter=0;" parent="1" target="x841J3Bm1jZhFWWxQSsH-14" edge="1">
          <mxGeometry width="50" height="50" relative="1" as="geometry">
            <mxPoint x="177" y="303" as="sourcePoint" />
            <mxPoint x="230.1199999999999" y="204.71000000000004" as="targetPoint" />
          </mxGeometry>
        </mxCell>
        <mxCell id="LLo8mtpyxURMcRUDiqvW-6" value="" style="endArrow=none;html=1;rounded=0;entryX=0.924;entryY=0.941;entryDx=0;entryDy=0;entryPerimeter=0;" parent="1" source="x841J3Bm1jZhFWWxQSsH-13" target="x841J3Bm1jZhFWWxQSsH-1" edge="1">
          <mxGeometry width="50" height="50" relative="1" as="geometry">
            <mxPoint x="128" y="347" as="sourcePoint" />
            <mxPoint x="158" y="333" as="targetPoint" />
          </mxGeometry>
        </mxCell>
        <mxCell id="LLo8mtpyxURMcRUDiqvW-7" value="" style="endArrow=none;html=1;rounded=0;entryX=1;entryY=0;entryDx=0;entryDy=0;exitX=0;exitY=0.5;exitDx=0;exitDy=0;" parent="1" source="x841J3Bm1jZhFWWxQSsH-12" target="x841J3Bm1jZhFWWxQSsH-1" edge="1">
          <mxGeometry width="50" height="50" relative="1" as="geometry">
            <mxPoint x="243" y="278" as="sourcePoint" />
            <mxPoint x="278" y="286.5" as="targetPoint" />
          </mxGeometry>
        </mxCell>
        <mxCell id="LLo8mtpyxURMcRUDiqvW-8" value="" style="endArrow=none;html=1;rounded=0;exitX=0.9;exitY=0.738;exitDx=0;exitDy=0;exitPerimeter=0;entryX=-0.007;entryY=0.129;entryDx=0;entryDy=0;entryPerimeter=0;" parent="1" source="x841J3Bm1jZhFWWxQSsH-8" target="x841J3Bm1jZhFWWxQSsH-1" edge="1">
          <mxGeometry width="50" height="50" relative="1" as="geometry">
            <mxPoint x="118" y="284" as="sourcePoint" />
            <mxPoint x="153" y="293" as="targetPoint" />
          </mxGeometry>
        </mxCell>
        <mxCell id="LLo8mtpyxURMcRUDiqvW-9" value="" style="endArrow=none;html=1;rounded=0;entryX=0.064;entryY=0.014;entryDx=0;entryDy=0;entryPerimeter=0;exitX=0.649;exitY=0.91;exitDx=0;exitDy=0;exitPerimeter=0;" parent="1" source="x841J3Bm1jZhFWWxQSsH-9" target="x841J3Bm1jZhFWWxQSsH-1" edge="1">
          <mxGeometry width="50" height="50" relative="1" as="geometry">
            <mxPoint x="128" y="263" as="sourcePoint" />
            <mxPoint x="162.5" y="275" as="targetPoint" />
          </mxGeometry>
        </mxCell>
        <mxCell id="LLo8mtpyxURMcRUDiqvW-10" value="" style="endArrow=none;html=1;rounded=0;exitX=0.663;exitY=1.014;exitDx=0;exitDy=0;exitPerimeter=0;" parent="1" source="x841J3Bm1jZhFWWxQSsH-10" edge="1">
          <mxGeometry width="50" height="50" relative="1" as="geometry">
            <mxPoint x="138" y="200" as="sourcePoint" />
            <mxPoint x="160" y="300" as="targetPoint" />
          </mxGeometry>
        </mxCell>
        <mxCell id="LLo8mtpyxURMcRUDiqvW-11" value="" style="endArrow=none;html=1;rounded=0;entryX=0.25;entryY=0;entryDx=0;entryDy=0;exitX=0.6;exitY=1.138;exitDx=0;exitDy=0;exitPerimeter=0;" parent="1" source="x841J3Bm1jZhFWWxQSsH-11" target="x841J3Bm1jZhFWWxQSsH-1" edge="1">
          <mxGeometry width="50" height="50" relative="1" as="geometry">
            <mxPoint x="178" y="243" as="sourcePoint" />
            <mxPoint x="208" y="316" as="targetPoint" />
          </mxGeometry>
        </mxCell>
        <mxCell id="LLo8mtpyxURMcRUDiqvW-12" value="&lt;font size=&quot;1&quot; style=&quot;&quot;&gt;&lt;u style=&quot;font-size: 8px;&quot;&gt;Attendee_ID&lt;/u&gt;&lt;/font&gt;" style="ellipse;whiteSpace=wrap;html=1;align=center;spacing=-2;fillColor=#f8cecc;strokeColor=#b85450;" parent="1" vertex="1">
          <mxGeometry x="432" y="253" width="50" height="30" as="geometry" />
        </mxCell>
        <mxCell id="LLo8mtpyxURMcRUDiqvW-13" value="&lt;font style=&quot;font-size: 9px;&quot;&gt;F_Name&lt;/font&gt;" style="ellipse;whiteSpace=wrap;html=1;align=center;spacing=-2;fillColor=#dae8fc;strokeColor=#6c8ebf;" parent="1" vertex="1">
          <mxGeometry x="735" y="280" width="50" height="30" as="geometry" />
        </mxCell>
        <mxCell id="LLo8mtpyxURMcRUDiqvW-14" value="&lt;font style=&quot;font-size: 9px;&quot;&gt;Name&lt;/font&gt;" style="ellipse;whiteSpace=wrap;html=1;align=center;spacing=-2;fillColor=#dae8fc;strokeColor=#6c8ebf;" parent="1" vertex="1">
          <mxGeometry x="665" y="303" width="50" height="30" as="geometry" />
        </mxCell>
        <mxCell id="LLo8mtpyxURMcRUDiqvW-15" value="&lt;font style=&quot;font-size: 9px;&quot;&gt;Email&lt;/font&gt;" style="ellipse;whiteSpace=wrap;html=1;align=center;spacing=-2;fillColor=#dae8fc;strokeColor=#6c8ebf;" parent="1" vertex="1">
          <mxGeometry x="764" y="345.5" width="50" height="30" as="geometry" />
        </mxCell>
        <mxCell id="LLo8mtpyxURMcRUDiqvW-16" value="&lt;font style=&quot;font-size: 9px;&quot;&gt;Phone Number&lt;/font&gt;" style="ellipse;whiteSpace=wrap;html=1;align=center;spacing=-2;fillColor=#dae8fc;strokeColor=#6c8ebf;" parent="1" vertex="1">
          <mxGeometry x="655" y="345.5" width="50" height="30" as="geometry" />
        </mxCell>
        <mxCell id="LLo8mtpyxURMcRUDiqvW-17" value="" style="endArrow=none;html=1;rounded=0;entryX=1;entryY=1;entryDx=0;entryDy=0;exitX=0.3;exitY=-0.024;exitDx=0;exitDy=0;exitPerimeter=0;" parent="1" target="LLo8mtpyxURMcRUDiqvW-12" edge="1">
          <mxGeometry width="50" height="50" relative="1" as="geometry">
            <mxPoint x="503" y="303" as="sourcePoint" />
            <mxPoint x="540.15" y="213.42000000000002" as="targetPoint" />
          </mxGeometry>
        </mxCell>
        <mxCell id="LLo8mtpyxURMcRUDiqvW-19" value="" style="endArrow=none;html=1;rounded=0;entryX=-0.027;entryY=0.411;entryDx=0;entryDy=0;entryPerimeter=0;exitX=1;exitY=0.103;exitDx=0;exitDy=0;exitPerimeter=0;" parent="1" source="x841J3Bm1jZhFWWxQSsH-2" target="LLo8mtpyxURMcRUDiqvW-14" edge="1">
          <mxGeometry width="50" height="50" relative="1" as="geometry">
            <mxPoint x="553" y="300" as="sourcePoint" />
            <mxPoint x="614.5" y="229" as="targetPoint" />
          </mxGeometry>
        </mxCell>
        <mxCell id="LLo8mtpyxURMcRUDiqvW-20" value="" style="endArrow=none;html=1;rounded=0;exitX=0.996;exitY=0.344;exitDx=0;exitDy=0;exitPerimeter=0;entryX=-0.02;entryY=0.389;entryDx=0;entryDy=0;entryPerimeter=0;" parent="1" source="x841J3Bm1jZhFWWxQSsH-2" target="LLo8mtpyxURMcRUDiqvW-15" edge="1">
          <mxGeometry width="50" height="50" relative="1" as="geometry">
            <mxPoint x="563" y="315" as="sourcePoint" />
            <mxPoint x="647" y="245" as="targetPoint" />
          </mxGeometry>
        </mxCell>
        <mxCell id="LLo8mtpyxURMcRUDiqvW-21" value="" style="endArrow=none;html=1;rounded=0;exitX=1.004;exitY=0.696;exitDx=0;exitDy=0;exitPerimeter=0;entryX=0.053;entryY=0.433;entryDx=0;entryDy=0;entryPerimeter=0;" parent="1" source="x841J3Bm1jZhFWWxQSsH-2" target="LLo8mtpyxURMcRUDiqvW-16" edge="1">
          <mxGeometry width="50" height="50" relative="1" as="geometry">
            <mxPoint x="558" y="331" as="sourcePoint" />
            <mxPoint x="637" y="293" as="targetPoint" />
          </mxGeometry>
        </mxCell>
        <mxCell id="LLo8mtpyxURMcRUDiqvW-22" value="&lt;font size=&quot;1&quot;&gt;Reg For&lt;/font&gt;" style="ellipse;whiteSpace=wrap;html=1;align=center;spacing=-2;fillColor=#d5e8d4;strokeColor=#82b366;" parent="1" vertex="1">
          <mxGeometry x="697" y="398.5" width="50" height="30" as="geometry" />
        </mxCell>
        <mxCell id="LLo8mtpyxURMcRUDiqvW-23" value="" style="endArrow=none;html=1;rounded=0;exitX=0.99;exitY=0.948;exitDx=0;exitDy=0;exitPerimeter=0;entryX=0.196;entryY=0.133;entryDx=0;entryDy=0;entryPerimeter=0;" parent="1" source="x841J3Bm1jZhFWWxQSsH-2" target="LLo8mtpyxURMcRUDiqvW-22" edge="1">
          <mxGeometry width="50" height="50" relative="1" as="geometry">
            <mxPoint x="548" y="333" as="sourcePoint" />
            <mxPoint x="648" y="324" as="targetPoint" />
          </mxGeometry>
        </mxCell>
        <mxCell id="LLo8mtpyxURMcRUDiqvW-25" value="" style="edgeStyle=entityRelationEdgeStyle;fontSize=12;html=1;endArrow=ERzeroToMany;startArrow=ERmandOne;rounded=0;exitX=1;exitY=0.5;exitDx=0;exitDy=0;entryX=0;entryY=0.5;entryDx=0;entryDy=0;" parent="1" source="x841J3Bm1jZhFWWxQSsH-1" target="x841J3Bm1jZhFWWxQSsH-2" edge="1">
          <mxGeometry width="100" height="100" relative="1" as="geometry">
            <mxPoint x="338" y="438" as="sourcePoint" />
            <mxPoint x="438" y="338" as="targetPoint" />
          </mxGeometry>
        </mxCell>
        <mxCell id="LLo8mtpyxURMcRUDiqvW-24" value="Attend" style="shape=rhombus;perimeter=rhombusPerimeter;whiteSpace=wrap;html=1;align=center;fillColor=#fff2cc;strokeColor=#d6b656;" parent="1" vertex="1">
          <mxGeometry x="318" y="290.5" width="80" height="55" as="geometry" />
        </mxCell>
        <mxCell id="LLo8mtpyxURMcRUDiqvW-26" value="&lt;font style=&quot;font-size: 9px;&quot;&gt;&lt;u&gt;Speaker_ID&lt;/u&gt;&lt;/font&gt;" style="ellipse;whiteSpace=wrap;html=1;align=center;spacing=-2;fillColor=#f8cecc;strokeColor=#b85450;" parent="1" vertex="1">
          <mxGeometry x="63" y="498" width="50" height="30" as="geometry" />
        </mxCell>
        <mxCell id="LLo8mtpyxURMcRUDiqvW-27" value="&lt;font style=&quot;font-size: 9px;&quot;&gt;S_Name&lt;/font&gt;" style="ellipse;whiteSpace=wrap;html=1;align=center;spacing=-2;fillColor=#dae8fc;strokeColor=#6c8ebf;" parent="1" vertex="1">
          <mxGeometry x="53" y="548" width="50" height="30" as="geometry" />
        </mxCell>
        <mxCell id="LLo8mtpyxURMcRUDiqvW-28" value="&lt;font style=&quot;font-size: 9px;&quot;&gt;bio&lt;/font&gt;" style="ellipse;whiteSpace=wrap;html=1;align=center;spacing=-2;fillColor=#dae8fc;strokeColor=#6c8ebf;" parent="1" vertex="1">
          <mxGeometry x="50" y="580" width="50" height="30" as="geometry" />
        </mxCell>
        <mxCell id="LLo8mtpyxURMcRUDiqvW-29" value="&lt;font style=&quot;font-size: 9px;&quot;&gt;Phone_No&lt;/font&gt;" style="ellipse;whiteSpace=wrap;html=1;align=center;spacing=-2;fillColor=#dae8fc;strokeColor=#6c8ebf;" parent="1" vertex="1">
          <mxGeometry x="63" y="628" width="50" height="30" as="geometry" />
        </mxCell>
        <mxCell id="LLo8mtpyxURMcRUDiqvW-30" value="&lt;font style=&quot;font-size: 9px;&quot;&gt;Email&lt;/font&gt;" style="ellipse;whiteSpace=wrap;html=1;align=center;spacing=-2;fillColor=#dae8fc;strokeColor=#6c8ebf;" parent="1" vertex="1">
          <mxGeometry x="113" y="648" width="50" height="30" as="geometry" />
        </mxCell>
        <mxCell id="LLo8mtpyxURMcRUDiqvW-31" value="&lt;font style=&quot;font-size: 7px;&quot;&gt;Events speaking at&lt;/font&gt;" style="ellipse;whiteSpace=wrap;html=1;align=center;spacing=-2;fillColor=#d5e8d4;strokeColor=#82b366;" parent="1" vertex="1">
          <mxGeometry x="158" y="678" width="70" height="40" as="geometry" />
        </mxCell>
        <mxCell id="LLo8mtpyxURMcRUDiqvW-32" value="" style="endArrow=none;html=1;rounded=0;exitX=1.048;exitY=0.613;exitDx=0;exitDy=0;exitPerimeter=0;entryX=0;entryY=0;entryDx=0;entryDy=0;" parent="1" source="LLo8mtpyxURMcRUDiqvW-26" target="x841J3Bm1jZhFWWxQSsH-3" edge="1">
          <mxGeometry width="50" height="50" relative="1" as="geometry">
            <mxPoint x="113" y="512" as="sourcePoint" />
            <mxPoint x="143" y="498" as="targetPoint" />
          </mxGeometry>
        </mxCell>
        <mxCell id="LLo8mtpyxURMcRUDiqvW-33" value="" style="endArrow=none;html=1;rounded=0;exitX=1;exitY=0.5;exitDx=0;exitDy=0;entryX=0;entryY=0.5;entryDx=0;entryDy=0;" parent="1" source="LLo8mtpyxURMcRUDiqvW-27" target="x841J3Bm1jZhFWWxQSsH-3" edge="1">
          <mxGeometry width="50" height="50" relative="1" as="geometry">
            <mxPoint x="95" y="566" as="sourcePoint" />
            <mxPoint x="163" y="598" as="targetPoint" />
          </mxGeometry>
        </mxCell>
        <mxCell id="LLo8mtpyxURMcRUDiqvW-34" value="" style="endArrow=none;html=1;rounded=0;exitX=1;exitY=0.5;exitDx=0;exitDy=0;entryX=0;entryY=0.893;entryDx=0;entryDy=0;entryPerimeter=0;" parent="1" source="LLo8mtpyxURMcRUDiqvW-28" target="x841J3Bm1jZhFWWxQSsH-3" edge="1">
          <mxGeometry width="50" height="50" relative="1" as="geometry">
            <mxPoint x="91.40000000000032" y="595.5899999999997" as="sourcePoint" />
            <mxPoint x="163" y="598" as="targetPoint" />
          </mxGeometry>
        </mxCell>
        <mxCell id="LLo8mtpyxURMcRUDiqvW-35" value="" style="endArrow=none;html=1;rounded=0;exitX=0.968;exitY=0.253;exitDx=0;exitDy=0;entryX=0.1;entryY=0.973;entryDx=0;entryDy=0;entryPerimeter=0;exitPerimeter=0;" parent="1" target="x841J3Bm1jZhFWWxQSsH-3" edge="1">
          <mxGeometry width="50" height="50" relative="1" as="geometry">
            <mxPoint x="94" y="628" as="sourcePoint" />
            <mxPoint x="183" y="608" as="targetPoint" />
          </mxGeometry>
        </mxCell>
        <mxCell id="LLo8mtpyxURMcRUDiqvW-36" value="" style="endArrow=none;html=1;rounded=0;exitX=0.968;exitY=0.253;exitDx=0;exitDy=0;entryX=0.295;entryY=0.987;entryDx=0;entryDy=0;entryPerimeter=0;exitPerimeter=0;" parent="1" target="x841J3Bm1jZhFWWxQSsH-3" edge="1">
          <mxGeometry width="50" height="50" relative="1" as="geometry">
            <mxPoint x="131" y="649" as="sourcePoint" />
            <mxPoint x="228" y="598" as="targetPoint" />
          </mxGeometry>
        </mxCell>
        <mxCell id="LLo8mtpyxURMcRUDiqvW-37" value="" style="endArrow=none;html=1;rounded=0;entryX=0.35;entryY=1.027;entryDx=0;entryDy=0;entryPerimeter=0;exitX=0.409;exitY=-0.04;exitDx=0;exitDy=0;exitPerimeter=0;" parent="1" source="LLo8mtpyxURMcRUDiqvW-31" target="x841J3Bm1jZhFWWxQSsH-3" edge="1">
          <mxGeometry width="50" height="50" relative="1" as="geometry">
            <mxPoint x="183" y="688" as="sourcePoint" />
            <mxPoint x="259" y="618" as="targetPoint" />
          </mxGeometry>
        </mxCell>
        <mxCell id="LLo8mtpyxURMcRUDiqvW-41" value="" style="edgeStyle=entityRelationEdgeStyle;fontSize=12;html=1;endArrow=ERoneToMany;startArrow=ERoneToMany;rounded=0;exitX=1;exitY=0.5;exitDx=0;exitDy=0;" parent="1" edge="1">
          <mxGeometry width="100" height="100" relative="1" as="geometry">
            <mxPoint x="225.5" y="566.1299999999999" as="sourcePoint" />
            <mxPoint x="150.5" y="324.88" as="targetPoint" />
          </mxGeometry>
        </mxCell>
        <mxCell id="LLo8mtpyxURMcRUDiqvW-38" value="Speak" style="shape=rhombus;perimeter=rhombusPerimeter;whiteSpace=wrap;html=1;align=center;fillColor=#fff2cc;strokeColor=#d6b656;" parent="1" vertex="1">
          <mxGeometry x="153" y="418" width="80" height="55" as="geometry" />
        </mxCell>
        <mxCell id="LLo8mtpyxURMcRUDiqvW-44" value="&lt;font style=&quot;font-size: 9px;&quot;&gt;&lt;u&gt;Sponsor_ID&lt;/u&gt;&lt;/font&gt;" style="ellipse;whiteSpace=wrap;html=1;align=center;spacing=-2;fillColor=#f8cecc;strokeColor=#b85450;" parent="1" vertex="1">
          <mxGeometry x="630" y="403" width="50" height="30" as="geometry" />
        </mxCell>
        <mxCell id="LLo8mtpyxURMcRUDiqvW-46" value="&lt;font size=&quot;1&quot;&gt;sponsor_Name&lt;/font&gt;" style="ellipse;whiteSpace=wrap;html=1;align=center;spacing=-2;fillColor=#dae8fc;strokeColor=#6c8ebf;" parent="1" vertex="1">
          <mxGeometry x="725" y="445" width="70" height="40" as="geometry" />
        </mxCell>
        <mxCell id="LLo8mtpyxURMcRUDiqvW-51" value="" style="endArrow=none;html=1;rounded=0;entryX=0.433;entryY=1.022;entryDx=0;entryDy=0;entryPerimeter=0;" parent="1" target="LLo8mtpyxURMcRUDiqvW-44" edge="1">
          <mxGeometry width="50" height="50" relative="1" as="geometry">
            <mxPoint x="645" y="475" as="sourcePoint" />
            <mxPoint x="655" y="440" as="targetPoint" />
          </mxGeometry>
        </mxCell>
        <mxCell id="LLo8mtpyxURMcRUDiqvW-52" value="" style="endArrow=none;html=1;rounded=0;entryX=-0.017;entryY=0.59;entryDx=0;entryDy=0;entryPerimeter=0;" parent="1" target="LLo8mtpyxURMcRUDiqvW-46" edge="1">
          <mxGeometry width="50" height="50" relative="1" as="geometry">
            <mxPoint x="655" y="485" as="sourcePoint" />
            <mxPoint x="685" y="461" as="targetPoint" />
          </mxGeometry>
        </mxCell>
        <mxCell id="LLo8mtpyxURMcRUDiqvW-53" value="" style="endArrow=none;html=1;rounded=0;exitX=0.905;exitY=0.979;exitDx=0;exitDy=0;exitPerimeter=0;entryX=0.307;entryY=0.057;entryDx=0;entryDy=0;entryPerimeter=0;" parent="1" source="x841J3Bm1jZhFWWxQSsH-4" target="LLo8mtpyxURMcRUDiqvW-203" edge="1">
          <mxGeometry width="50" height="50" relative="1" as="geometry">
            <mxPoint x="655" y="498" as="sourcePoint" />
            <mxPoint x="815" y="550" as="targetPoint" />
          </mxGeometry>
        </mxCell>
        <mxCell id="LLo8mtpyxURMcRUDiqvW-54" value="" style="endArrow=none;html=1;rounded=0;exitX=1;exitY=1;exitDx=0;exitDy=0;" parent="1" source="x841J3Bm1jZhFWWxQSsH-4" edge="1">
          <mxGeometry width="50" height="50" relative="1" as="geometry">
            <mxPoint x="647.5" y="505" as="sourcePoint" />
            <mxPoint x="691.9944729883237" y="551.7354456923276" as="targetPoint" />
          </mxGeometry>
        </mxCell>
        <mxCell id="LLo8mtpyxURMcRUDiqvW-55" value="" style="endArrow=none;html=1;rounded=0;exitX=1;exitY=1;exitDx=0;exitDy=0;entryX=0.36;entryY=0.02;entryDx=0;entryDy=0;entryPerimeter=0;" parent="1" edge="1">
          <mxGeometry width="50" height="50" relative="1" as="geometry">
            <mxPoint x="642" y="505" as="sourcePoint" />
            <mxPoint x="623.3999999999999" y="570.8" as="targetPoint" />
          </mxGeometry>
        </mxCell>
        <mxCell id="LLo8mtpyxURMcRUDiqvW-56" value="" style="endArrow=none;html=1;rounded=0;entryX=0.5;entryY=0;entryDx=0;entryDy=0;" parent="1" source="x841J3Bm1jZhFWWxQSsH-4" edge="1">
          <mxGeometry width="50" height="50" relative="1" as="geometry">
            <mxPoint x="527.5" y="463" as="sourcePoint" />
            <mxPoint x="560.5" y="544.9999999999999" as="targetPoint" />
          </mxGeometry>
        </mxCell>
        <mxCell id="LLo8mtpyxURMcRUDiqvW-66" value="" style="fontSize=12;html=1;endArrow=ERoneToMany;startArrow=ERoneToMany;rounded=0;elbow=vertical;exitX=0.44;exitY=0.985;exitDx=0;exitDy=0;exitPerimeter=0;edgeStyle=elbowEdgeStyle;entryX=0.445;entryY=0.02;entryDx=0;entryDy=0;entryPerimeter=0;" parent="1" source="x841J3Bm1jZhFWWxQSsH-1" target="x841J3Bm1jZhFWWxQSsH-4" edge="1">
          <mxGeometry width="100" height="100" relative="1" as="geometry">
            <mxPoint x="188" y="338" as="sourcePoint" />
            <mxPoint x="378" y="458" as="targetPoint" />
          </mxGeometry>
        </mxCell>
        <mxCell id="LLo8mtpyxURMcRUDiqvW-67" value="&lt;font style=&quot;font-size: 6px;&quot;&gt;sponsorship level&lt;/font&gt;" style="ellipse;whiteSpace=wrap;html=1;align=center;spacing=-2;fillColor=#dae8fc;strokeColor=#6c8ebf;" parent="1" vertex="1">
          <mxGeometry x="278" y="433" width="60" height="40" as="geometry" />
        </mxCell>
        <mxCell id="LLo8mtpyxURMcRUDiqvW-68" value="&lt;font style=&quot;font-size: 6px;&quot;&gt;sponsor_amount&lt;/font&gt;" style="ellipse;whiteSpace=wrap;html=1;align=center;spacing=-2;fillColor=#dae8fc;strokeColor=#6c8ebf;" parent="1" vertex="1">
          <mxGeometry x="358" y="461" width="60" height="40" as="geometry" />
        </mxCell>
        <mxCell id="LLo8mtpyxURMcRUDiqvW-69" value="" style="endArrow=none;html=1;rounded=0;entryX=0.166;entryY=0.665;entryDx=0;entryDy=0;entryPerimeter=0;exitX=0.693;exitY=-0.01;exitDx=0;exitDy=0;exitPerimeter=0;" parent="1" source="LLo8mtpyxURMcRUDiqvW-67" edge="1">
          <mxGeometry width="50" height="50" relative="1" as="geometry">
            <mxPoint x="318" y="441" as="sourcePoint" />
            <mxPoint x="359.6200000000001" y="412.5875" as="targetPoint" />
          </mxGeometry>
        </mxCell>
        <mxCell id="LLo8mtpyxURMcRUDiqvW-70" value="" style="endArrow=none;html=1;rounded=0;exitX=0.5;exitY=0;exitDx=0;exitDy=0;" parent="1" source="LLo8mtpyxURMcRUDiqvW-68" edge="1">
          <mxGeometry width="50" height="50" relative="1" as="geometry">
            <mxPoint x="388" y="436" as="sourcePoint" />
            <mxPoint x="390" y="430" as="targetPoint" />
          </mxGeometry>
        </mxCell>
        <mxCell id="LLo8mtpyxURMcRUDiqvW-71" value="&lt;font style=&quot;font-size: 9px;&quot;&gt;&lt;u&gt;Session_ID&lt;/u&gt;&lt;/font&gt;" style="ellipse;whiteSpace=wrap;html=1;align=center;spacing=-2;fillColor=#f8cecc;strokeColor=#b85450;" parent="1" vertex="1">
          <mxGeometry x="404" y="10" width="50" height="30" as="geometry" />
        </mxCell>
        <mxCell id="LLo8mtpyxURMcRUDiqvW-72" value="Title" style="ellipse;whiteSpace=wrap;html=1;align=center;spacing=-2;fillColor=#dae8fc;strokeColor=#6c8ebf;" parent="1" vertex="1">
          <mxGeometry x="327" y="10" width="50" height="30" as="geometry" />
        </mxCell>
        <mxCell id="LLo8mtpyxURMcRUDiqvW-73" value="&lt;font style=&quot;font-size: 8px;&quot;&gt;Description&lt;/font&gt;" style="ellipse;whiteSpace=wrap;html=1;align=center;spacing=-2;fillColor=#dae8fc;strokeColor=#6c8ebf;" parent="1" vertex="1">
          <mxGeometry x="318" y="50" width="50" height="30" as="geometry" />
        </mxCell>
        <mxCell id="LLo8mtpyxURMcRUDiqvW-74" value="Time" style="ellipse;whiteSpace=wrap;html=1;align=center;spacing=-2;fillColor=#dae8fc;strokeColor=#6c8ebf;" parent="1" vertex="1">
          <mxGeometry x="565" y="40" width="50" height="30" as="geometry" />
        </mxCell>
        <mxCell id="LLo8mtpyxURMcRUDiqvW-75" value="Event ID" style="ellipse;whiteSpace=wrap;html=1;align=center;spacing=-2;fillColor=#d5e8d4;strokeColor=#82b366;" parent="1" vertex="1">
          <mxGeometry x="537" y="10" width="50" height="30" as="geometry" />
        </mxCell>
        <mxCell id="LLo8mtpyxURMcRUDiqvW-76" value="" style="endArrow=none;html=1;rounded=0;exitX=0.102;exitY=0.059;exitDx=0;exitDy=0;exitPerimeter=0;entryX=0.234;entryY=0.967;entryDx=0;entryDy=0;entryPerimeter=0;" parent="1" target="LLo8mtpyxURMcRUDiqvW-71" edge="1">
          <mxGeometry width="50" height="50" relative="1" as="geometry">
            <mxPoint x="410.1600000000001" y="71.76999999999998" as="sourcePoint" />
            <mxPoint x="359.6797058602674" y="61.31087467416137" as="targetPoint" />
          </mxGeometry>
        </mxCell>
        <mxCell id="LLo8mtpyxURMcRUDiqvW-77" value="" style="endArrow=none;html=1;rounded=0;exitX=0;exitY=0.5;exitDx=0;exitDy=0;entryX=0.969;entryY=0.68;entryDx=0;entryDy=0;entryPerimeter=0;" parent="1" target="LLo8mtpyxURMcRUDiqvW-72" edge="1">
          <mxGeometry width="50" height="50" relative="1" as="geometry">
            <mxPoint x="402" y="85" as="sourcePoint" />
            <mxPoint x="360" y="71" as="targetPoint" />
          </mxGeometry>
        </mxCell>
        <mxCell id="LLo8mtpyxURMcRUDiqvW-78" value="" style="endArrow=none;html=1;rounded=0;exitX=0;exitY=0.75;exitDx=0;exitDy=0;entryX=1;entryY=1;entryDx=0;entryDy=0;" parent="1" target="LLo8mtpyxURMcRUDiqvW-73" edge="1">
          <mxGeometry width="50" height="50" relative="1" as="geometry">
            <mxPoint x="402" y="92.5" as="sourcePoint" />
            <mxPoint x="350" y="58" as="targetPoint" />
          </mxGeometry>
        </mxCell>
        <mxCell id="LLo8mtpyxURMcRUDiqvW-79" value="" style="endArrow=none;html=1;rounded=0;exitX=1;exitY=0.5;exitDx=0;exitDy=0;entryX=0.058;entryY=0.781;entryDx=0;entryDy=0;entryPerimeter=0;" parent="1" edge="1">
          <mxGeometry width="50" height="50" relative="1" as="geometry">
            <mxPoint x="482" y="85" as="sourcePoint" />
            <mxPoint x="569.9000000000001" y="63.42999999999995" as="targetPoint" />
          </mxGeometry>
        </mxCell>
        <mxCell id="LLo8mtpyxURMcRUDiqvW-80" value="" style="endArrow=none;html=1;rounded=0;entryX=-0.02;entryY=0.652;entryDx=0;entryDy=0;entryPerimeter=0;exitX=0.963;exitY=-0.043;exitDx=0;exitDy=0;exitPerimeter=0;" parent="1" target="LLo8mtpyxURMcRUDiqvW-75" edge="1">
          <mxGeometry width="50" height="50" relative="1" as="geometry">
            <mxPoint x="479.0400000000002" y="68.70999999999992" as="sourcePoint" />
            <mxPoint x="482" y="30" as="targetPoint" />
          </mxGeometry>
        </mxCell>
        <mxCell id="LLo8mtpyxURMcRUDiqvW-147" value="" style="edgeStyle=elbowEdgeStyle;fontSize=12;html=1;endArrow=ERzeroToMany;startArrow=ERmandOne;rounded=0;elbow=vertical;entryX=0.361;entryY=1.052;entryDx=0;entryDy=0;entryPerimeter=0;exitX=0.636;exitY=0.029;exitDx=0;exitDy=0;exitPerimeter=0;" parent="1" edge="1">
          <mxGeometry width="100" height="100" relative="1" as="geometry">
            <mxPoint x="182.8800000000001" y="303.8700000000001" as="sourcePoint" />
            <mxPoint x="430.8799999999999" y="101.56000000000006" as="targetPoint" />
          </mxGeometry>
        </mxCell>
        <mxCell id="LLo8mtpyxURMcRUDiqvW-149" value="Session" style="shape=ext;margin=3;double=1;whiteSpace=wrap;html=1;align=center;fillColor=#e1d5e7;strokeColor=#9673a6;" parent="1" vertex="1">
          <mxGeometry x="395" y="70" width="87" height="30" as="geometry" />
        </mxCell>
        <mxCell id="LLo8mtpyxURMcRUDiqvW-150" value="Have" style="shape=rhombus;double=1;perimeter=rhombusPerimeter;whiteSpace=wrap;html=1;align=center;fillColor=#fff2cc;strokeColor=#d6b656;" parent="1" vertex="1">
          <mxGeometry x="239" y="174" width="90" height="57" as="geometry" />
        </mxCell>
        <mxCell id="LLo8mtpyxURMcRUDiqvW-164" value="Reg_ID" style="ellipse;whiteSpace=wrap;html=1;align=center;spacing=-2;fillColor=#f8cecc;strokeColor=#b85450;" parent="1" vertex="1">
          <mxGeometry x="528" y="670" width="50" height="30" as="geometry" />
        </mxCell>
        <mxCell id="LLo8mtpyxURMcRUDiqvW-165" value="&lt;div style=&quot;text-align: left;&quot;&gt;&lt;font style=&quot;font-size: 10px;&quot;&gt;Attendee ID&amp;nbsp;&lt;/font&gt;&lt;/div&gt;" style="ellipse;whiteSpace=wrap;html=1;align=center;spacing=-2;fillColor=#d5e8d4;strokeColor=#82b366;" parent="1" vertex="1">
          <mxGeometry x="508" y="718" width="62" height="40" as="geometry" />
        </mxCell>
        <mxCell id="LLo8mtpyxURMcRUDiqvW-166" value="Event ID" style="ellipse;whiteSpace=wrap;html=1;align=center;spacing=-2;fillColor=#d5e8d4;strokeColor=#82b366;" parent="1" vertex="1">
          <mxGeometry x="465" y="770" width="62" height="40" as="geometry" />
        </mxCell>
        <mxCell id="LLo8mtpyxURMcRUDiqvW-167" value="Reg_Date" style="ellipse;whiteSpace=wrap;html=1;align=center;spacing=-2;fillColor=#dae8fc;strokeColor=#6c8ebf;" parent="1" vertex="1">
          <mxGeometry x="385" y="780" width="62" height="40" as="geometry" />
        </mxCell>
        <mxCell id="LLo8mtpyxURMcRUDiqvW-168" value="Reg_Type" style="ellipse;whiteSpace=wrap;html=1;align=center;spacing=-2;fillColor=#dae8fc;strokeColor=#6c8ebf;" parent="1" vertex="1">
          <mxGeometry x="314" y="730" width="62" height="40" as="geometry" />
        </mxCell>
        <mxCell id="LLo8mtpyxURMcRUDiqvW-169" value="Day" style="ellipse;whiteSpace=wrap;html=1;align=center;fillColor=#dae8fc;strokeColor=#6c8ebf;" parent="1" vertex="1">
          <mxGeometry x="328" y="850" width="60" height="30" as="geometry" />
        </mxCell>
        <mxCell id="LLo8mtpyxURMcRUDiqvW-170" value="Year" style="ellipse;whiteSpace=wrap;html=1;align=center;fillColor=#dae8fc;strokeColor=#6c8ebf;" parent="1" vertex="1">
          <mxGeometry x="405" y="860" width="60" height="30" as="geometry" />
        </mxCell>
        <mxCell id="LLo8mtpyxURMcRUDiqvW-171" value="" style="endArrow=none;html=1;rounded=0;entryX=0.706;entryY=0.029;entryDx=0;entryDy=0;entryPerimeter=0;exitX=0.124;exitY=0.771;exitDx=0;exitDy=0;exitPerimeter=0;" parent="1" source="LLo8mtpyxURMcRUDiqvW-167" target="LLo8mtpyxURMcRUDiqvW-169" edge="1">
          <mxGeometry width="50" height="50" relative="1" as="geometry">
            <mxPoint x="440" y="800" as="sourcePoint" />
            <mxPoint x="490" y="750" as="targetPoint" />
          </mxGeometry>
        </mxCell>
        <mxCell id="LLo8mtpyxURMcRUDiqvW-172" value="" style="endArrow=none;html=1;rounded=0;entryX=0.438;entryY=0.092;entryDx=0;entryDy=0;entryPerimeter=0;exitX=0.124;exitY=0.771;exitDx=0;exitDy=0;exitPerimeter=0;" parent="1" target="LLo8mtpyxURMcRUDiqvW-170" edge="1">
          <mxGeometry width="50" height="50" relative="1" as="geometry">
            <mxPoint x="425" y="820" as="sourcePoint" />
            <mxPoint x="402" y="860" as="targetPoint" />
          </mxGeometry>
        </mxCell>
        <mxCell id="LLo8mtpyxURMcRUDiqvW-173" value="" style="endArrow=none;html=1;rounded=0;entryX=0.989;entryY=0.365;entryDx=0;entryDy=0;entryPerimeter=0;exitX=-0.039;exitY=0.33;exitDx=0;exitDy=0;exitPerimeter=0;" parent="1" source="LLo8mtpyxURMcRUDiqvW-164" target="x841J3Bm1jZhFWWxQSsH-6" edge="1">
          <mxGeometry width="50" height="50" relative="1" as="geometry">
            <mxPoint x="440" y="800" as="sourcePoint" />
            <mxPoint x="490" y="750" as="targetPoint" />
          </mxGeometry>
        </mxCell>
        <mxCell id="LLo8mtpyxURMcRUDiqvW-174" value="" style="endArrow=none;html=1;rounded=0;entryX=1;entryY=0.75;entryDx=0;entryDy=0;exitX=0.194;exitY=0.05;exitDx=0;exitDy=0;exitPerimeter=0;" parent="1" source="LLo8mtpyxURMcRUDiqvW-165" target="x841J3Bm1jZhFWWxQSsH-6" edge="1">
          <mxGeometry width="50" height="50" relative="1" as="geometry">
            <mxPoint x="527" y="690.5" as="sourcePoint" />
            <mxPoint x="465" y="679.5" as="targetPoint" />
          </mxGeometry>
        </mxCell>
        <mxCell id="LLo8mtpyxURMcRUDiqvW-175" value="" style="endArrow=none;html=1;rounded=0;entryX=0.989;entryY=0.365;entryDx=0;entryDy=0;entryPerimeter=0;exitX=0.5;exitY=0;exitDx=0;exitDy=0;" parent="1" source="LLo8mtpyxURMcRUDiqvW-166" edge="1">
          <mxGeometry width="50" height="50" relative="1" as="geometry">
            <mxPoint x="505" y="728.5" as="sourcePoint" />
            <mxPoint x="450" y="688" as="targetPoint" />
          </mxGeometry>
        </mxCell>
        <mxCell id="LLo8mtpyxURMcRUDiqvW-176" value="" style="endArrow=none;html=1;rounded=0;entryX=0.989;entryY=0.365;entryDx=0;entryDy=0;entryPerimeter=0;exitX=0.708;exitY=-0.038;exitDx=0;exitDy=0;exitPerimeter=0;" parent="1" source="LLo8mtpyxURMcRUDiqvW-167" edge="1">
          <mxGeometry width="50" height="50" relative="1" as="geometry">
            <mxPoint x="458" y="770" as="sourcePoint" />
            <mxPoint x="412" y="688" as="targetPoint" />
          </mxGeometry>
        </mxCell>
        <mxCell id="LLo8mtpyxURMcRUDiqvW-177" value="" style="endArrow=none;html=1;rounded=0;entryX=0.989;entryY=0.365;entryDx=0;entryDy=0;entryPerimeter=0;exitX=1;exitY=0;exitDx=0;exitDy=0;" parent="1" source="LLo8mtpyxURMcRUDiqvW-168" edge="1">
          <mxGeometry width="50" height="50" relative="1" as="geometry">
            <mxPoint x="405" y="778" as="sourcePoint" />
            <mxPoint x="388" y="688" as="targetPoint" />
          </mxGeometry>
        </mxCell>
        <mxCell id="LLo8mtpyxURMcRUDiqvW-178" value="" style="edgeStyle=elbowEdgeStyle;fontSize=12;html=1;endArrow=ERzeroToMany;startArrow=ERmandOne;rounded=0;entryX=0.688;entryY=0.067;entryDx=0;entryDy=0;entryPerimeter=0;elbow=vertical;exitX=0.5;exitY=1;exitDx=0;exitDy=0;" parent="1" source="x841J3Bm1jZhFWWxQSsH-2" target="x841J3Bm1jZhFWWxQSsH-6" edge="1">
          <mxGeometry width="100" height="100" relative="1" as="geometry">
            <mxPoint x="520" y="340" as="sourcePoint" />
            <mxPoint x="440" y="650" as="targetPoint" />
          </mxGeometry>
        </mxCell>
        <mxCell id="LLo8mtpyxURMcRUDiqvW-179" value="Feedback" style="shape=ext;margin=3;double=1;whiteSpace=wrap;html=1;align=center;fillColor=#e1d5e7;strokeColor=#9673a6;" parent="1" vertex="1">
          <mxGeometry x="680" y="90" width="84" height="30" as="geometry" />
        </mxCell>
        <mxCell id="LLo8mtpyxURMcRUDiqvW-180" value="F_ID" style="ellipse;whiteSpace=wrap;html=1;align=center;spacing=-2;fillColor=#f8cecc;strokeColor=#b85450;" parent="1" vertex="1">
          <mxGeometry x="725" y="10" width="50" height="30" as="geometry" />
        </mxCell>
        <mxCell id="LLo8mtpyxURMcRUDiqvW-182" value="&lt;font size=&quot;1&quot; style=&quot;&quot;&gt;&lt;span style=&quot;font-size: 8px;&quot;&gt;Attendee_ID&lt;/span&gt;&lt;/font&gt;" style="ellipse;whiteSpace=wrap;html=1;align=center;spacing=-2;fillColor=#d5e8d4;strokeColor=#82b366;" parent="1" vertex="1">
          <mxGeometry x="775" y="40" width="50" height="30" as="geometry" />
        </mxCell>
        <mxCell id="LLo8mtpyxURMcRUDiqvW-184" value="Rating" style="ellipse;whiteSpace=wrap;html=1;align=center;spacing=-2;fillColor=#dae8fc;strokeColor=#6c8ebf;" parent="1" vertex="1">
          <mxGeometry x="792.5" y="80" width="50" height="30" as="geometry" />
        </mxCell>
        <mxCell id="LLo8mtpyxURMcRUDiqvW-185" value="" style="endArrow=none;html=1;rounded=0;exitX=1;exitY=0.5;exitDx=0;exitDy=0;entryX=0.278;entryY=1.06;entryDx=0;entryDy=0;entryPerimeter=0;" parent="1" target="LLo8mtpyxURMcRUDiqvW-180" edge="1">
          <mxGeometry width="50" height="50" relative="1" as="geometry">
            <mxPoint x="704.5" y="90" as="sourcePoint" />
            <mxPoint x="792.5" y="68" as="targetPoint" />
          </mxGeometry>
        </mxCell>
        <mxCell id="LLo8mtpyxURMcRUDiqvW-186" value="" style="endArrow=none;html=1;rounded=0;exitX=1;exitY=0.5;exitDx=0;exitDy=0;entryX=0.154;entryY=0.981;entryDx=0;entryDy=0;entryPerimeter=0;" parent="1" target="LLo8mtpyxURMcRUDiqvW-182" edge="1">
          <mxGeometry width="50" height="50" relative="1" as="geometry">
            <mxPoint x="750" y="90" as="sourcePoint" />
            <mxPoint x="784.5" y="42" as="targetPoint" />
          </mxGeometry>
        </mxCell>
        <mxCell id="LLo8mtpyxURMcRUDiqvW-189" value="" style="edgeStyle=elbowEdgeStyle;fontSize=12;html=1;endArrow=ERzeroToMany;startArrow=ERmandOne;rounded=0;elbow=vertical;entryX=0.44;entryY=1.108;entryDx=0;entryDy=0;entryPerimeter=0;" parent="1" target="LLo8mtpyxURMcRUDiqvW-179" edge="1">
          <mxGeometry width="100" height="100" relative="1" as="geometry">
            <mxPoint x="520" y="300" as="sourcePoint" />
            <mxPoint x="620" y="150" as="targetPoint" />
          </mxGeometry>
        </mxCell>
        <mxCell id="LLo8mtpyxURMcRUDiqvW-190" value="&lt;font style=&quot;font-size: 9px;&quot;&gt;L_Name&lt;/font&gt;" style="ellipse;whiteSpace=wrap;html=1;align=center;spacing=-2;fillColor=#dae8fc;strokeColor=#6c8ebf;" parent="1" vertex="1">
          <mxGeometry x="790" y="303.5" width="50" height="30" as="geometry" />
        </mxCell>
        <mxCell id="LLo8mtpyxURMcRUDiqvW-191" value="" style="endArrow=none;html=1;rounded=0;exitX=0.973;exitY=0.278;exitDx=0;exitDy=0;exitPerimeter=0;" parent="1" source="LLo8mtpyxURMcRUDiqvW-14" target="LLo8mtpyxURMcRUDiqvW-13" edge="1">
          <mxGeometry width="50" height="50" relative="1" as="geometry">
            <mxPoint x="705" y="310" as="sourcePoint" />
            <mxPoint x="755" y="260" as="targetPoint" />
          </mxGeometry>
        </mxCell>
        <mxCell id="LLo8mtpyxURMcRUDiqvW-192" value="" style="endArrow=none;html=1;rounded=0;entryX=0;entryY=0.5;entryDx=0;entryDy=0;" parent="1" target="LLo8mtpyxURMcRUDiqvW-190" edge="1">
          <mxGeometry width="50" height="50" relative="1" as="geometry">
            <mxPoint x="715" y="320" as="sourcePoint" />
            <mxPoint x="747" y="311" as="targetPoint" />
          </mxGeometry>
        </mxCell>
        <mxCell id="LLo8mtpyxURMcRUDiqvW-193" value="Provide" style="shape=rhombus;double=1;perimeter=rhombusPerimeter;whiteSpace=wrap;html=1;align=center;fillColor=#fff2cc;strokeColor=#d6b656;" parent="1" vertex="1">
          <mxGeometry x="558" y="184" width="90" height="57" as="geometry" />
        </mxCell>
        <mxCell id="LLo8mtpyxURMcRUDiqvW-195" value="Sponsor" style="shape=rhombus;perimeter=rhombusPerimeter;whiteSpace=wrap;html=1;align=center;fillColor=#fff2cc;strokeColor=#d6b656;" parent="1" vertex="1">
          <mxGeometry x="345" y="377" width="80" height="55" as="geometry" />
        </mxCell>
        <mxCell id="LLo8mtpyxURMcRUDiqvW-196" value="can" style="shape=rhombus;perimeter=rhombusPerimeter;whiteSpace=wrap;html=1;align=center;fillColor=#fff2cc;strokeColor=#d6b656;" parent="1" vertex="1">
          <mxGeometry x="447" y="474" width="52" height="45" as="geometry" />
        </mxCell>
        <mxCell id="LLo8mtpyxURMcRUDiqvW-199" value=" " style="endArrow=none;html=1;rounded=0;entryX=0;entryY=0.5;entryDx=0;entryDy=0;exitX=0.985;exitY=0.394;exitDx=0;exitDy=0;exitPerimeter=0;" parent="1" source="LLo8mtpyxURMcRUDiqvW-179" target="LLo8mtpyxURMcRUDiqvW-184" edge="1">
          <mxGeometry width="50" height="50" relative="1" as="geometry">
            <mxPoint x="770" y="100" as="sourcePoint" />
            <mxPoint x="793" y="79" as="targetPoint" />
          </mxGeometry>
        </mxCell>
        <mxCell id="LLo8mtpyxURMcRUDiqvW-200" value="&lt;span style=&quot;white-space-collapse: preserve;&quot; class=&quot;selectable-text copyable-text&quot;&gt;&lt;font style=&quot;font-size: 10px;&quot;&gt;Sp_Contact person&lt;/font&gt;&lt;/span&gt;" style="ellipse;whiteSpace=wrap;html=1;align=center;spacing=-2;fillColor=#dae8fc;strokeColor=#6c8ebf;" parent="1" vertex="1">
          <mxGeometry x="593" y="570" width="70" height="40" as="geometry" />
        </mxCell>
        <mxCell id="LLo8mtpyxURMcRUDiqvW-201" value="&lt;span style=&quot;white-space-collapse: preserve;&quot; class=&quot;selectable-text copyable-text&quot;&gt;&lt;font style=&quot;font-size: 10px;&quot;&gt;Sponsored Event&lt;/font&gt;&lt;/span&gt;" style="ellipse;whiteSpace=wrap;html=1;align=center;spacing=-2;fillColor=#d5e8d4;strokeColor=#82b366;" parent="1" vertex="1">
          <mxGeometry x="517" y="543" width="70" height="40" as="geometry" />
        </mxCell>
        <mxCell id="LLo8mtpyxURMcRUDiqvW-202" value="&lt;span style=&quot;white-space-collapse: preserve;&quot; class=&quot;selectable-text copyable-text&quot;&gt;&lt;font style=&quot;font-size: 10px;&quot;&gt;Phone No&lt;/font&gt;&lt;/span&gt;" style="ellipse;whiteSpace=wrap;html=1;align=center;spacing=-2;fillColor=#dae8fc;strokeColor=#6c8ebf;" parent="1" vertex="1">
          <mxGeometry x="677" y="550" width="70" height="40" as="geometry" />
        </mxCell>
        <mxCell id="LLo8mtpyxURMcRUDiqvW-203" value="&lt;span style=&quot;white-space-collapse: preserve;&quot; class=&quot;selectable-text copyable-text&quot;&gt;&lt;font style=&quot;font-size: 10px;&quot;&gt;Email&lt;/font&gt;&lt;/span&gt;" style="ellipse;whiteSpace=wrap;html=1;align=center;spacing=-2;fillColor=#dae8fc;strokeColor=#6c8ebf;" parent="1" vertex="1">
          <mxGeometry x="785" y="550" width="70" height="40" as="geometry" />
        </mxCell>
        <mxCell id="LLo8mtpyxURMcRUDiqvW-204" value="&lt;font style=&quot;font-size: 10px;&quot;&gt;speakers&lt;/font&gt;" style="ellipse;whiteSpace=wrap;html=1;align=center;spacing=-2;fillColor=#d5e8d4;strokeColor=#82b366;" parent="1" vertex="1">
          <mxGeometry x="520" y="110" width="50" height="30" as="geometry" />
        </mxCell>
        <mxCell id="LLo8mtpyxURMcRUDiqvW-205" value="" style="endArrow=none;html=1;rounded=0;exitX=1;exitY=0.75;exitDx=0;exitDy=0;entryX=0.288;entryY=0.055;entryDx=0;entryDy=0;entryPerimeter=0;" parent="1" source="LLo8mtpyxURMcRUDiqvW-149" target="LLo8mtpyxURMcRUDiqvW-204" edge="1">
          <mxGeometry width="50" height="50" relative="1" as="geometry">
            <mxPoint x="492" y="95" as="sourcePoint" />
            <mxPoint x="579.9000000000001" y="73.42999999999995" as="targetPoint" />
          </mxGeometry>
        </mxCell>
        <mxCell id="HDLceYnwbbkd7cJuscF_-1" value="&lt;font size=&quot;1&quot;&gt;Reg_date&lt;/font&gt;" style="ellipse;whiteSpace=wrap;html=1;align=center;spacing=-2;fillColor=#dae8fc;strokeColor=#6c8ebf;" vertex="1" parent="1">
          <mxGeometry x="600" y="260" width="50" height="30" as="geometry" />
        </mxCell>
        <mxCell id="HDLceYnwbbkd7cJuscF_-2" value="" style="endArrow=none;html=1;rounded=0;exitX=0.939;exitY=0.006;exitDx=0;exitDy=0;exitPerimeter=0;entryX=0.107;entryY=0.828;entryDx=0;entryDy=0;entryPerimeter=0;" edge="1" parent="1" source="x841J3Bm1jZhFWWxQSsH-2" target="HDLceYnwbbkd7cJuscF_-1">
          <mxGeometry width="50" height="50" relative="1" as="geometry">
            <mxPoint x="570" y="320" as="sourcePoint" />
            <mxPoint x="620" y="270" as="targetPoint" />
          </mxGeometry>
        </mxCell>
        <mxCell id="HDLceYnwbbkd7cJuscF_-5" value="Event ID" style="ellipse;whiteSpace=wrap;html=1;align=center;spacing=-2;fillColor=#d5e8d4;strokeColor=#82b366;" vertex="1" parent="1">
          <mxGeometry x="800" y="130" width="50" height="30" as="geometry" />
        </mxCell>
        <mxCell id="HDLceYnwbbkd7cJuscF_-6" value="" style="endArrow=none;html=1;rounded=0;exitX=1;exitY=0.75;exitDx=0;exitDy=0;entryX=0.288;entryY=0.055;entryDx=0;entryDy=0;entryPerimeter=0;" edge="1" parent="1">
          <mxGeometry width="50" height="50" relative="1" as="geometry">
            <mxPoint x="750" y="120" as="sourcePoint" />
            <mxPoint x="802" y="139" as="targetPoint" />
          </mxGeometry>
        </mxCell>
      </root>
    </mxGraphModel>
  </diagram>
</mxfile>
